<svg width="286" height="448" viewBox="0 0 286 448" fill="none" xmlns="http://www.w3.org/2000/svg">
<path d="M103.189 0L232.301 67.3004C106.591 23.5049 45.1378 75.3363 21.1168 97.435L103.189 0Z" fill="black"/>
<path d="M280.344 97.9374C289.351 117.023 289.351 139.121 267.332 153.183L216.287 181.309C219.734 230.571 190.806 334.636 133.031 339.843C137.673 321.642 136.318 303.255 133.215 290.798C129.417 284.93 112.901 267.273 98.6843 263.175C70.6576 273.705 62.9195 283.743 60.1511 307.372C64.7573 308.825 73.3064 315.614 77.6941 331.633C62.3845 323.359 47.5646 309.124 36.6306 286.278L165.743 155.695C165.743 155.695 149.993 129.068 158 102C166.007 74.9318 183.5 67.0003 220.791 60.2694L280.344 97.9374Z" fill="black"/>
<path d="M98.5861 270.708C77 276 68.4655 285.308 66.0577 305.865C71.1356 307.468 82.8329 320.113 84.5739 343.534C86.3149 366.954 71.1393 379.107 62.7244 382.02C59.2424 379.836 48.4482 375.903 33.1273 377.651L91.451 448C90.9207 431.833 86.7834 397.663 74.4762 390.322C134.019 377.389 135.496 321.455 129.113 295.821C125.81 290.716 116.5 274.5 98.5861 270.708Z" fill="black"/>
<path d="M128.21 374.17C138.619 348.054 159.571 335.498 168.746 332.484L197.271 377.184C217.288 369.148 247.982 371.827 260.826 374.17L162.24 428.412C162.64 417.162 166.744 404.305 168.746 399.282L128.21 374.17Z" fill="black"/>
<path d="M50.1422 275.229C21.7173 271.613 7.93862 250.284 4.60238 240.072C-13.4134 282.662 25.7875 298.332 47.64 300.843L50.1422 275.229Z" fill="black"/>
</svg>
